<svg width="16" height="16" viewBox="0 0 16 16" fill="none" xmlns="http://www.w3.org/2000/svg">
<path d="M11.964 7.60625L4.92025 2.10469C4.90185 2.0902 4.87973 2.08119 4.85643 2.07871C4.83314 2.07622 4.80962 2.08035 4.78857 2.09063C4.76752 2.10091 4.7498 2.11692 4.73744 2.13682C4.72508 2.15672 4.71858 2.1797 4.71869 2.20312V3.41094C4.71869 3.4875 4.75463 3.56094 4.814 3.60781L10.439 8L4.814 12.3922C4.75307 12.4391 4.71869 12.5125 4.71869 12.5891V13.7969C4.71869 13.9016 4.839 13.9594 4.92025 13.8953L11.964 8.39375C12.0239 8.34705 12.0723 8.28731 12.1056 8.21908C12.1389 8.15085 12.1562 8.07593 12.1562 8C12.1562 7.92407 12.1389 7.84915 12.1056 7.78092C12.0723 7.71269 12.0239 7.65295 11.964 7.60625Z" fill="#595959"/>
</svg>
