<svg width="16" height="16" viewBox="0 0 16 16" fill="none" xmlns="http://www.w3.org/2000/svg">
<path d="M11.3122 3.41058V2.20277C11.3122 2.09808 11.1919 2.04027 11.1107 2.10433L4.0669 7.60589C4.00706 7.65243 3.95863 7.71203 3.92532 7.78013C3.89201 7.84824 3.87469 7.92305 3.87469 7.99886C3.87469 8.07467 3.89201 8.14949 3.92532 8.21759C3.95863 8.28569 4.00706 8.34529 4.0669 8.39183L11.1107 13.8934C11.1935 13.9575 11.3122 13.8996 11.3122 13.795V12.5871C11.3122 12.5106 11.2763 12.4371 11.2169 12.3903L5.5919 7.99964L11.2169 3.60745C11.2763 3.56058 11.3122 3.48714 11.3122 3.41058Z" fill="#595959"/>
</svg>
